<?xml version="1.0" encoding="utf-8"?>
<!-- Generator: Adobe Illustrator 27.2.0, SVG Export Plug-In . SVG Version: 6.00 Build 0)  -->
<svg version="1.1" xmlns="http://www.w3.org/2000/svg" xmlns:xlink="http://www.w3.org/1999/xlink" x="0px" y="0px"
	 viewBox="0 0 576 486" style="enable-background:new 0 0 576 486;" xml:space="preserve">
<style type="text/css">
	.st0{fill:#FFFFFF;stroke:#3A3836;stroke-width:2;stroke-miterlimit:10;}
	.st1{fill:#3A3836;stroke:#3A3836;stroke-width:2;stroke-miterlimit:10;}
	.st2{fill:#E6E6E6;}
	.st3{fill:#E6E6E6;stroke:#3A3836;stroke-width:2;stroke-miterlimit:10;}
	.st4{opacity:0.75;clip-path:url(#SVGID_00000065755374783205930930000005758435589416275357_);}
	.st5{fill:none;stroke:#E6E6E6;stroke-miterlimit:10;}
	.st6{opacity:0.75;clip-path:url(#SVGID_00000036251543360702780460000017232542669656884150_);}
	.st7{fill:#FFFFFF;}
	.st8{fill:url(#SVGID_00000064328637270897286380000001082079148337042320_);}
	.st9{fill:#A4EEC4;}
	.st10{fill:#F79A8E;}
	.st11{fill:none;stroke:#3A3836;stroke-width:2;stroke-miterlimit:10;}
	.st12{fill:none;stroke:#3A3836;stroke-width:2;stroke-linecap:round;stroke-miterlimit:10;}
	.st13{fill:none;stroke:#3A3836;stroke-width:2;stroke-miterlimit:10;stroke-dasharray:3.144,3.144,3.144,3.144;}
	.st14{fill:none;stroke:#3A3836;stroke-width:2;stroke-miterlimit:10;stroke-dasharray:3.144,3.144,3.144,3.144,3.144,3.144;}
	.st15{fill:none;stroke:#3A3836;stroke-width:2;stroke-miterlimit:10;stroke-dasharray:2.7001,2.7001,2.7001,2.7001;}
	.st16{fill:#E5E5E5;}
	.st17{fill:#FFFFFF;stroke:#3A3836;stroke-width:2;stroke-linecap:round;stroke-linejoin:round;stroke-miterlimit:10;}
	.st18{fill:none;stroke:#3A3836;stroke-width:2;stroke-linecap:round;stroke-linejoin:round;stroke-miterlimit:10;}
	.st19{fill:url(#SVGID_00000009589680036431239980000013441251639443997323_);stroke:#3A3836;stroke-width:2;stroke-miterlimit:10;}
	.st20{fill:url(#SVGID_00000176749236489168455520000014129582928322145212_);stroke:#3A3836;stroke-width:2;stroke-miterlimit:10;}
	.st21{fill:#FF8043;stroke:#3A3836;stroke-width:2;stroke-miterlimit:10;}
	.st22{fill:#FFFFFF;stroke:#3A3836;stroke-width:2;stroke-linecap:round;stroke-linejoin:round;}
	.st23{fill:none;stroke:#3A3836;stroke-width:2;stroke-linecap:round;stroke-linejoin:round;}
	.st24{fill:#FD8753;stroke:#3A3836;stroke-width:2;stroke-miterlimit:10;}
	.st25{fill:#D1DAFA;}
	.st26{fill:none;stroke:#D1DAFA;stroke-width:2;stroke-miterlimit:10;}
	.st27{fill:none;stroke:#3A3836;stroke-width:2;stroke-linejoin:round;}
</style>
<g id="Browser">
	<path class="st0" d="M473.8,359.5H89.2c-3.9,0-7-3.1-7-7V54.5h398.7v297.9C480.8,356.3,477.7,359.5,473.8,359.5z"/>
	<path class="st1" d="M473.8,34.3H89.2c-3.9,0-7,3.1-7,7v13.2h398.7V41.3C480.8,37.4,477.7,34.3,473.8,34.3z"/>
	<g>
		<circle class="st2" cx="95.9" cy="44.4" r="3.9"/>
		<circle class="st2" cx="107.3" cy="44.4" r="3.9"/>
		<circle class="st2" cx="118.8" cy="44.4" r="3.9"/>
	</g>
	<path class="st3" d="M89.2,359.5h40.5V54.5H82.2v297.9C82.2,356.3,85.3,359.5,89.2,359.5z"/>
	<line class="st3" x1="129.6" y1="102.5" x2="82.2" y2="102.5"/>
	<g>
		<g>
			<defs>
				<path id="SVGID_1_" d="M276.8,182.7h98.3c1.5,0,2.8,1.3,2.8,2.8v59.1c0,1.5-1.3,2.8-2.8,2.8h-98.3c-1.5,0-2.8-1.3-2.8-2.8v-59.1
					C274,184,275.3,182.7,276.8,182.7z"/>
			</defs>
			<clipPath id="SVGID_00000062158537653091456800000007864038289939269820_">
				<use xlink:href="#SVGID_1_"  style="overflow:visible;"/>
			</clipPath>
			<g style="opacity:0.75;clip-path:url(#SVGID_00000062158537653091456800000007864038289939269820_);">
				<rect x="272" y="182.7" class="st5" width="10.8" height="10.8"/>
				<rect x="282.8" y="182.7" class="st5" width="10.8" height="10.8"/>
				<rect x="272" y="193.5" class="st5" width="10.8" height="10.8"/>
				<rect x="282.8" y="193.5" class="st5" width="10.8" height="10.8"/>
				<rect x="272" y="204.3" class="st5" width="10.8" height="10.8"/>
				<rect x="282.8" y="204.3" class="st5" width="10.8" height="10.8"/>
				<rect x="272" y="215.1" class="st5" width="10.8" height="10.8"/>
				<rect x="282.8" y="215.1" class="st5" width="10.8" height="10.8"/>
				<rect x="272" y="225.9" class="st5" width="10.8" height="10.8"/>
				<rect x="282.8" y="225.9" class="st5" width="10.8" height="10.8"/>
				<rect x="272" y="236.7" class="st5" width="10.8" height="10.8"/>
				<rect x="282.8" y="236.7" class="st5" width="10.8" height="10.8"/>
				<rect x="358.4" y="182.7" class="st5" width="10.8" height="10.8"/>
				<rect x="369.2" y="182.7" class="st5" width="10.8" height="10.8"/>
				<rect x="358.4" y="193.5" class="st5" width="10.8" height="10.8"/>
				<rect x="369.2" y="193.5" class="st5" width="10.8" height="10.8"/>
				<rect x="358.4" y="204.3" class="st5" width="10.8" height="10.8"/>
				<rect x="369.2" y="204.3" class="st5" width="10.8" height="10.8"/>
				<rect x="358.4" y="215.1" class="st5" width="10.8" height="10.8"/>
				<rect x="369.2" y="215.1" class="st5" width="10.8" height="10.8"/>
				<rect x="358.4" y="225.9" class="st5" width="10.8" height="10.8"/>
				<rect x="369.2" y="225.9" class="st5" width="10.8" height="10.8"/>
				<rect x="358.4" y="236.7" class="st5" width="10.8" height="10.8"/>
				<rect x="369.2" y="236.7" class="st5" width="10.8" height="10.8"/>
				<rect x="293.6" y="182.7" class="st5" width="10.8" height="10.8"/>
				<rect x="304.4" y="182.7" class="st5" width="10.8" height="10.8"/>
				<rect x="293.6" y="193.5" class="st5" width="10.8" height="10.8"/>
				<rect x="304.4" y="193.5" class="st5" width="10.8" height="10.8"/>
				<rect x="293.6" y="204.3" class="st5" width="10.8" height="10.8"/>
				<rect x="304.4" y="204.3" class="st5" width="10.8" height="10.8"/>
				<rect x="293.6" y="215.1" class="st5" width="10.8" height="10.8"/>
				<rect x="304.4" y="215.1" class="st5" width="10.8" height="10.8"/>
				<rect x="293.6" y="225.9" class="st5" width="10.8" height="10.8"/>
				<rect x="304.4" y="225.9" class="st5" width="10.8" height="10.8"/>
				<rect x="293.6" y="236.7" class="st5" width="10.8" height="10.8"/>
				<rect x="304.4" y="236.7" class="st5" width="10.8" height="10.8"/>
				<rect x="315.2" y="182.7" class="st5" width="10.8" height="10.8"/>
				<rect x="326" y="182.7" class="st5" width="10.8" height="10.8"/>
				<rect x="315.2" y="193.5" class="st5" width="10.8" height="10.8"/>
				<rect x="326" y="193.5" class="st5" width="10.8" height="10.8"/>
				<rect x="315.2" y="204.3" class="st5" width="10.8" height="10.8"/>
				<rect x="326" y="204.3" class="st5" width="10.8" height="10.8"/>
				<rect x="315.2" y="215.1" class="st5" width="10.8" height="10.8"/>
				<rect x="326" y="215.1" class="st5" width="10.8" height="10.8"/>
				<rect x="315.2" y="225.9" class="st5" width="10.8" height="10.8"/>
				<rect x="326" y="225.9" class="st5" width="10.8" height="10.8"/>
				<rect x="315.2" y="236.7" class="st5" width="10.8" height="10.8"/>
				<rect x="326" y="236.7" class="st5" width="10.8" height="10.8"/>
				<rect x="336.8" y="182.7" class="st5" width="10.8" height="10.8"/>
				<rect x="347.6" y="182.7" class="st5" width="10.8" height="10.8"/>
				<rect x="336.8" y="193.5" class="st5" width="10.8" height="10.8"/>
				<rect x="347.6" y="193.5" class="st5" width="10.8" height="10.8"/>
				<rect x="336.8" y="204.3" class="st5" width="10.8" height="10.8"/>
				<rect x="347.6" y="204.3" class="st5" width="10.8" height="10.8"/>
				<rect x="336.8" y="215.1" class="st5" width="10.8" height="10.8"/>
				<rect x="347.6" y="215.1" class="st5" width="10.8" height="10.8"/>
				<rect x="336.8" y="225.9" class="st5" width="10.8" height="10.8"/>
				<rect x="347.6" y="225.9" class="st5" width="10.8" height="10.8"/>
				<rect x="336.8" y="236.7" class="st5" width="10.8" height="10.8"/>
				<rect x="347.6" y="236.7" class="st5" width="10.8" height="10.8"/>
			</g>
		</g>
		<g>
			<defs>
				<path id="SVGID_00000018934460012646580500000009932277376052515974_" d="M276.8,272.6h98.3c1.5,0,2.8,1.3,2.8,2.8v59.1
					c0,1.5-1.3,2.8-2.8,2.8h-98.3c-1.5,0-2.8-1.3-2.8-2.8v-59.1C274,273.9,275.3,272.6,276.8,272.6z"/>
			</defs>
			<clipPath id="SVGID_00000128444547581954941750000011929447034676642187_">
				<use xlink:href="#SVGID_00000018934460012646580500000009932277376052515974_"  style="overflow:visible;"/>
			</clipPath>
			<g style="opacity:0.75;clip-path:url(#SVGID_00000128444547581954941750000011929447034676642187_);">
				<rect x="272" y="272.6" class="st5" width="10.8" height="10.8"/>
				<rect x="282.8" y="272.6" class="st5" width="10.8" height="10.8"/>
				<rect x="272" y="283.4" class="st5" width="10.8" height="10.8"/>
				<rect x="282.8" y="283.4" class="st5" width="10.8" height="10.8"/>
				<rect x="272" y="294.2" class="st5" width="10.8" height="10.8"/>
				<rect x="282.8" y="294.2" class="st5" width="10.8" height="10.8"/>
				<rect x="272" y="305" class="st5" width="10.8" height="10.8"/>
				<rect x="282.8" y="305" class="st5" width="10.8" height="10.8"/>
				<rect x="272" y="315.8" class="st5" width="10.8" height="10.8"/>
				<rect x="282.8" y="315.8" class="st5" width="10.8" height="10.8"/>
				<rect x="272" y="326.6" class="st5" width="10.8" height="10.8"/>
				<rect x="282.8" y="326.6" class="st5" width="10.8" height="10.8"/>
				<rect x="358.4" y="272.6" class="st5" width="10.8" height="10.8"/>
				<rect x="369.2" y="272.6" class="st5" width="10.8" height="10.8"/>
				<rect x="358.4" y="283.4" class="st5" width="10.8" height="10.8"/>
				<rect x="369.2" y="283.4" class="st5" width="10.8" height="10.8"/>
				<rect x="358.4" y="294.2" class="st5" width="10.8" height="10.8"/>
				<rect x="369.2" y="294.2" class="st5" width="10.8" height="10.8"/>
				<rect x="358.4" y="305" class="st5" width="10.8" height="10.8"/>
				<rect x="369.2" y="305" class="st5" width="10.8" height="10.8"/>
				<rect x="358.4" y="315.8" class="st5" width="10.8" height="10.8"/>
				<rect x="369.2" y="315.8" class="st5" width="10.8" height="10.8"/>
				<rect x="358.4" y="326.6" class="st5" width="10.8" height="10.8"/>
				<rect x="369.2" y="326.6" class="st5" width="10.8" height="10.8"/>
				<rect x="293.6" y="272.6" class="st5" width="10.8" height="10.8"/>
				<rect x="304.4" y="272.6" class="st5" width="10.8" height="10.8"/>
				<rect x="293.6" y="283.4" class="st5" width="10.8" height="10.8"/>
				<rect x="304.4" y="283.4" class="st5" width="10.8" height="10.8"/>
				<rect x="293.6" y="294.2" class="st5" width="10.8" height="10.8"/>
				<rect x="304.4" y="294.2" class="st5" width="10.8" height="10.8"/>
				<rect x="293.6" y="305" class="st5" width="10.8" height="10.8"/>
				<rect x="304.4" y="305" class="st5" width="10.8" height="10.8"/>
				<rect x="293.6" y="315.8" class="st5" width="10.8" height="10.8"/>
				<rect x="304.4" y="315.8" class="st5" width="10.8" height="10.8"/>
				<rect x="293.6" y="326.6" class="st5" width="10.8" height="10.8"/>
				<rect x="304.4" y="326.6" class="st5" width="10.8" height="10.8"/>
				<rect x="315.2" y="272.6" class="st5" width="10.8" height="10.8"/>
				<rect x="326" y="272.6" class="st5" width="10.8" height="10.8"/>
				<rect x="315.2" y="283.4" class="st5" width="10.8" height="10.8"/>
				<rect x="326" y="283.4" class="st5" width="10.8" height="10.8"/>
				<rect x="315.2" y="294.2" class="st5" width="10.8" height="10.8"/>
				<rect x="326" y="294.2" class="st5" width="10.8" height="10.8"/>
				<rect x="315.2" y="305" class="st5" width="10.8" height="10.8"/>
				<rect x="326" y="305" class="st5" width="10.8" height="10.8"/>
				<rect x="315.2" y="315.8" class="st5" width="10.8" height="10.8"/>
				<rect x="326" y="315.8" class="st5" width="10.8" height="10.8"/>
				<rect x="315.2" y="326.6" class="st5" width="10.8" height="10.8"/>
				<rect x="326" y="326.6" class="st5" width="10.8" height="10.8"/>
				<rect x="336.8" y="272.6" class="st5" width="10.8" height="10.8"/>
				<rect x="347.6" y="272.6" class="st5" width="10.8" height="10.8"/>
				<rect x="336.8" y="283.4" class="st5" width="10.8" height="10.8"/>
				<rect x="347.6" y="283.4" class="st5" width="10.8" height="10.8"/>
				<rect x="336.8" y="294.2" class="st5" width="10.8" height="10.8"/>
				<rect x="347.6" y="294.2" class="st5" width="10.8" height="10.8"/>
				<rect x="336.8" y="305" class="st5" width="10.8" height="10.8"/>
				<rect x="347.6" y="305" class="st5" width="10.8" height="10.8"/>
				<rect x="336.8" y="315.8" class="st5" width="10.8" height="10.8"/>
				<rect x="347.6" y="315.8" class="st5" width="10.8" height="10.8"/>
				<rect x="336.8" y="326.6" class="st5" width="10.8" height="10.8"/>
				<rect x="347.6" y="326.6" class="st5" width="10.8" height="10.8"/>
			</g>
		</g>
		<path class="st7" d="M264.5,76.7h122.9c1.9,0,3.5,1.6,3.5,3.5v73.9c0,1.9-1.6,3.5-3.5,3.5H264.5c-1.9,0-3.5-1.6-3.5-3.5V80.2
			C261,78.2,262.6,76.7,264.5,76.7z"/>
		
			<linearGradient id="SVGID_00000054987948853671712410000009064668432330355101_" gradientUnits="userSpaceOnUse" x1="161.6214" y1="117.1101" x2="242.5337" y2="117.1101">
			<stop  offset="0" style="stop-color:#FF6C37"/>
			<stop  offset="1" style="stop-color:#FFB400"/>
		</linearGradient>
		<path style="fill:url(#SVGID_00000054987948853671712410000009064668432330355101_);" d="M238.9,157.6h-73.6c-2,0-3.6-1.6-3.6-3.6
			V80.3c0-2,1.6-3.6,3.6-3.6h73.6c2,0,3.6,1.6,3.6,3.6v73.6C242.5,155.9,240.9,157.6,238.9,157.6z"/>
		<path class="st9" d="M231.5,247.4h-58.9c-1.6,0-2.9-1.3-2.9-2.9v-58.9c0-1.6,1.3-2.9,2.9-2.9h58.9c1.6,0,2.9,1.3,2.9,2.9v58.9
			C234.4,246.1,233.1,247.4,231.5,247.4z"/>
		<path class="st9" d="M231.5,337.3h-58.9c-1.6,0-2.9-1.3-2.9-2.9v-58.9c0-1.6,1.3-2.9,2.9-2.9h58.9c1.6,0,2.9,1.3,2.9,2.9v58.9
			C234.4,336,233.1,337.3,231.5,337.3z"/>
		<path class="st7" d="M232.8,140.2l-14.2-24.5l-14.1-24.5c-1.1-1.9-3.8-1.9-4.9,0l-28.3,49c-1.1,1.9,0.3,4.3,2.5,4.3h56.6
			C232.6,144.5,233.9,142.1,232.8,140.2z M202.1,138.1c-2.1,0-3.7-1.6-3.7-3.7c0-2.1,1.7-3.7,3.7-3.7c2.1,0,3.7,1.7,3.7,3.7
			C205.8,136.4,204.2,138.1,202.1,138.1z M206.6,108.7l-2,17c-0.2,1.3-1.2,2.2-2.5,2.2c-1.3,0-2.3-0.9-2.5-2.2l-2-17
			c-0.3-2.7,1.8-5,4.5-5c2.5,0,4.5,2.1,4.5,4.5C206.6,108.4,206.6,108.6,206.6,108.7z"/>
		<g>
			<path class="st9" d="M275,86.1h19.1c1.1,0,2,0.9,2,2v58c0,1.1-0.9,2-2,2H275c-1.1,0-2-0.9-2-2v-58C273,87,273.9,86.1,275,86.1z"
				/>
			<path class="st9" d="M303.4,99.1h19.1c1.1,0,2,0.9,2,2v45c0,1.1-0.9,2-2,2h-19.1c-1.1,0-2-0.9-2-2v-45
				C301.4,100,302.2,99.1,303.4,99.1z"/>
			<path class="st9" d="M361.6,107.1h19.1c1.1,0,2,0.9,2,2v37c0,1.1-0.9,2-2,2h-19.1c-1.1,0-2-0.9-2-2v-37
				C359.6,108,360.5,107.1,361.6,107.1z"/>
			<path class="st10" d="M332.5,123.6h19.1c1.1,0,2,0.9,2,2v20.5c0,1.1-0.9,2-2,2h-19.1c-1.1,0-2-0.9-2-2v-20.5
				C330.5,124.5,331.4,123.6,332.5,123.6z"/>
		</g>
		<path class="st11" d="M264.5,76.7h122.9c1.9,0,3.5,1.6,3.5,3.5v73.9c0,1.9-1.6,3.5-3.5,3.5H264.5c-1.9,0-3.5-1.6-3.5-3.5V80.2
			C261,78.2,262.6,76.7,264.5,76.7z"/>
		<path class="st12" d="M288.2,231l15.5-15.5c3.7-3.7,9.2-4.6,13.9-2.2l7.6,3.8c3.9,1.9,8.4,1.6,12-0.7l26.6-17.7"/>
		<path class="st11" d="M238.9,157.6h-73.6c-2,0-3.6-1.6-3.6-3.6V80.3c0-2,1.6-3.6,3.6-3.6h73.6c2,0,3.6,1.6,3.6,3.6v73.6
			C242.5,155.9,240.9,157.6,238.9,157.6z"/>
		<path class="st11" d="M231.5,247.4h-58.9c-1.6,0-2.9-1.3-2.9-2.9v-58.9c0-1.6,1.3-2.9,2.9-2.9h58.9c1.6,0,2.9,1.3,2.9,2.9v58.9
			C234.4,246.1,233.1,247.4,231.5,247.4z"/>
		<path class="st11" d="M231.5,337.3h-58.9c-1.6,0-2.9-1.3-2.9-2.9v-58.9c0-1.6,1.3-2.9,2.9-2.9h58.9c1.6,0,2.9,1.3,2.9,2.9v58.9
			C234.4,336,233.1,337.3,231.5,337.3z"/>
		<g>
			<polygon class="st7" points="197,230.4 182.1,215.6 187.8,209.9 197,219.1 216.4,199.7 222,205.4 			"/>
		</g>
		<g>
			<polygon class="st7" points="197,320.3 182.1,305.5 187.8,299.8 197,309 216.4,289.6 222,295.3 			"/>
		</g>
		<g>
			<polyline class="st12" points="293.6,318.8 315.2,303.5 336.8,312.2 358.4,292.3 			"/>
			<circle class="st3" cx="293.6" cy="318.8" r="5.4"/>
			<circle class="st3" cx="315.2" cy="303.5" r="5.4"/>
			<circle class="st3" cx="336.8" cy="312.2" r="5.4"/>
			<circle class="st3" cx="358.4" cy="292.3" r="5.4"/>
		</g>
		<g>
			<g>
				<line class="st11" x1="234.4" y1="215.1" x2="236.9" y2="215.1"/>
				<line class="st13" x1="240.1" y1="215.1" x2="251.1" y2="215.1"/>
				<line class="st14" x1="252.7" y1="215.1" x2="270" y2="215.1"/>
				<line class="st11" x1="271.5" y1="215.1" x2="274" y2="215.1"/>
			</g>
		</g>
		<g>
			<g>
				<line class="st11" x1="242.5" y1="117.1" x2="245" y2="117.1"/>
				<line class="st15" x1="247.7" y1="117.1" x2="257.2" y2="117.1"/>
				<line class="st11" x1="258.5" y1="117.1" x2="261" y2="117.1"/>
			</g>
		</g>
		<g>
			<g>
				<line class="st11" x1="234.4" y1="305" x2="236.9" y2="305"/>
				<line class="st13" x1="240.1" y1="305" x2="251.1" y2="305"/>
				<line class="st14" x1="252.7" y1="305" x2="270" y2="305"/>
				<line class="st11" x1="271.5" y1="305" x2="274" y2="305"/>
			</g>
		</g>
		<path class="st11" d="M276.8,182.7h98.3c1.5,0,2.8,1.3,2.8,2.8v59.1c0,1.5-1.3,2.8-2.8,2.8h-98.3c-1.5,0-2.8-1.3-2.8-2.8v-59.1
			C274,184,275.3,182.7,276.8,182.7z"/>
		<path class="st11" d="M276.8,272.6h98.3c1.5,0,2.8,1.3,2.8,2.8v59.1c0,1.5-1.3,2.8-2.8,2.8h-98.3c-1.5,0-2.8-1.3-2.8-2.8v-59.1
			C274,273.9,275.3,272.6,276.8,272.6z"/>
	</g>
	<g>
		<path class="st2" d="M458.1,90.4h-49.2c-1.7,0-3.1-1.4-3.1-3.1v0c0-1.7,1.4-3.1,3.1-3.1h49.2c1.7,0,3.1,1.4,3.1,3.1v0
			C461.2,89,459.8,90.4,458.1,90.4z"/>
		<path class="st2" d="M440.5,103.7h-31.6c-1.7,0-3.1-1.4-3.1-3.1v0c0-1.7,1.4-3.1,3.1-3.1h31.6c1.7,0,3.1,1.4,3.1,3.1v0
			C443.6,102.3,442.2,103.7,440.5,103.7z"/>
	</g>
</g>
<g id="Postmanauts">
	<path class="st16" d="M183.2,466.3H26.3c-6.8,0-12.2-5.5-12.2-12.2v0c0-6.8,5.5-12.2,12.2-12.2h156.9c6.8,0,12.2,5.5,12.2,12.2v0
		C195.5,460.8,190,466.3,183.2,466.3z"/>
	<path class="st16" d="M543.3,466.3H347.2c-6.8,0-12.2-5.5-12.2-12.2v0c0-6.8,5.5-12.2,12.2-12.2h196.2c6.8,0,12.2,5.5,12.2,12.2v0
		C555.6,460.8,550.1,466.3,543.3,466.3z"/>
	<g>
		<g>
			<g>
				<rect x="98.4" y="221.3" class="st7" width="33.7" height="36.9"/>
				<path class="st7" d="M47,361.3h-2.2c-8.7,0-15.8-7.1-15.8-15.8v-5.3c0-8.7,7.1-15.8,15.8-15.8H47c8.7,0,15.8,7.1,15.8,15.8v5.3
					C62.7,354.2,55.7,361.3,47,361.3z"/>
				<g>
					<path class="st17" d="M45,342.6v86.9c0,12.2,10,22.1,22.4,22.1h0c12.4,0,22.4-9.9,22.4-22.1l5.4-60.4c0.1-2.4,2.1-4.3,4.6-4.3
						h0c2.5,0,4.5,1.9,4.6,4.3l8.4,58.3c0,12.9,10.5,23.3,23.6,23.5h0c13.3,0.2,21.3-13.2,21.3-26.2l-8.4-144.8
						c36.7-26,53-70.5,57.9-92c4.9-21.5-18.1-27.4-18.1-27.4c1.2-29.6-11.1-22.9-11.1-22.9c-11.1,78.2-47.6,90.2-47.6,90.2"/>
					<g>
						<path class="st17" d="M46.9,238.2l-2.5-2.1c-12.2-10.6-19.9-26.1-19.9-43.3c0-31.9,26.3-57.8,58.7-57.8s58.7,25.9,58.7,57.8
							c0,23.1-13.7,43-33.6,52.3l-1.3,0.7"/>
						<path class="st17" d="M138.7,210.5c-18.8-2.2-32.3-17.8-32.3-36.9c0-11.2,3-19.6,10.9-26.5"/>
					</g>
				</g>
				<path class="st17" d="M91.4,341.2H33.3c-10.6,0-19.2-8.6-19.2-19.2v-64c0-10.6,8.6-19.2,19.2-19.2h58.1
					c10.6,0,19.2,8.6,19.2,19.2v64C110.6,332.6,102,341.2,91.4,341.2z"/>
				<path class="st17" d="M28.3,341.3c0,0,1.1,19.3,16.2,20.2"/>
				<path class="st17" d="M149.4,279.9c0,0-11.1,30.5-38.7,24.4"/>
				<path class="st17" d="M150.5,300c0,0-11.7,23.5-39.3,17.3"/>
				<path class="st18" d="M82.1,239.5v21c0,8.4-6.8,15.2-15.2,15.2H14.5"/>
				
					<linearGradient id="SVGID_00000153696631551919618790000004617944234198367620_" gradientUnits="userSpaceOnUse" x1="52.33" y1="291.7595" x2="63.1085" y2="291.7595">
					<stop  offset="0" style="stop-color:#FF6C37"/>
					<stop  offset="1" style="stop-color:#FFB400"/>
				</linearGradient>
				
					<circle style="fill:url(#SVGID_00000153696631551919618790000004617944234198367620_);stroke:#3A3836;stroke-width:2;stroke-miterlimit:10;" cx="57.7" cy="291.8" r="5.4"/>
				
					<linearGradient id="SVGID_00000014614521422602308520000009488609623505051293_" gradientUnits="userSpaceOnUse" x1="36.0113" y1="291.7595" x2="46.7898" y2="291.7595">
					<stop  offset="0" style="stop-color:#FF6C37"/>
					<stop  offset="1" style="stop-color:#FFB400"/>
				</linearGradient>
				
					<circle style="fill:url(#SVGID_00000014614521422602308520000009488609623505051293_);stroke:#3A3836;stroke-width:2;stroke-miterlimit:10;" cx="41.4" cy="291.8" r="5.4"/>
				<path class="st18" d="M14.2,286.6h11.4c2.3,0,4.2,2.5,4.2,5.6l0,0c0,3.1-1.9,5.6-4.2,5.6H14.2"/>
				<path class="st18" d="M14.2,307.9h66.2c2.3,0,4.2,2.5,4.2,5.6v0c0,3.1-1.9,5.6-4.2,5.6H14.2"/>
				<path class="st17" d="M80.3,203.1c0,4.9-3.9,8.8-8.8,8.8s-8.8-3.9-8.8-8.8s3.9-8.8,8.8-8.8S80.3,198.2,80.3,203.1z"/>
				<line class="st17" x1="54.3" y1="133.4" x2="57.5" y2="140.4"/>
				
					<ellipse transform="matrix(0.926 -0.3776 0.3776 0.926 -43.5399 28.5707)" class="st21" cx="51.1" cy="125.3" rx="8.2" ry="8.2"/>
			</g>
		</g>
	</g>
	<g>
		<path class="st22" d="M439.4,239.1c-0.9,0-21.6,9.2-17.9,23.1h20.9L439.4,239.1z"/>
		<path class="st22" d="M554.7,299.8c-2.9-31.1-6.5-56.4-11.9-70.6c-4.9-12.9-10.5-11.5-18.3-10.3l-6.7,1.1l-2.7,0.4
			c4.6-8.3,7.3-17.8,7.3-28c0-31.8-25.7-57.5-57.5-57.5c-28.2,0-51.6,20.3-56.5,47.1c-0.6,3.4-0.9,6.9-0.9,10.4
			c0,17.9,8.2,33.9,21,44.4c1.8,1.5,3.7,2.9,5.7,4.2h0c0.5,0.3,1,0.6,1.6,0.9l-4.1,85.5l-5.9,94.5c0,13,7.9,26.3,20.9,26.1
			c12.8-0.2,21.4-9.3,23.1-23.4l4.9-52.8c0.1-1.2,0.6-2.3,1.4-3.1c0.8-0.8,2-1.2,3.1-1.2c2.4,0,9.7-0.3,9.8,4.3l2.3,57.1
			c0,5.8,2.3,11.4,6.4,15.5c4.1,4.1,9.7,6.4,15.5,6.4c5.8,0,11.4-2.3,15.5-6.4c4.1-4.1,6.4-9.7,6.4-15.5v-83.7
			c0,0,0.5-10.8,0.3-25.9l0,0.2l4.2-0.3C548.3,318.9,556,314.1,554.7,299.8z"/>
		<path class="st16" d="M483,247c0,0-24,17.8-48.9,9.5l1.5-13.9C435.6,242.6,459.6,255.2,483,247z"/>
		<circle class="st23" cx="464.9" cy="192.4" r="57.5"/>
		<path class="st23" d="M386,277.6c15.5,10.3,38.2,5.6,46.8,4.8"/>
		<path class="st23" d="M435.6,242.6l-4.1,84.8l-5.9,94.5c0,13,7.9,26.3,20.9,26.1c12.8-0.2,21.4-9.3,23.1-23.4l4.9-52.8
			c0.1-1.2,0.6-2.3,1.4-3.1c0.8-0.8,2-1.2,3.1-1.2c2.4,0,9.7-0.3,9.8,4.3l2.3,57.1c0,5.8,2.3,11.4,6.4,15.5
			c4.1,4.1,9.7,6.4,15.5,6.4c5.8,0,11.4-2.3,15.5-6.4c4.1-4.1,6.4-9.7,6.4-15.5v-83.7c0,0,4.2-90-16.4-114.7"/>
		<path class="st23" d="M489.7,244.3c0,0-7,17.3-0.5,35"/>
		<path class="st23" d="M515.6,220.3l8.9-1.4c7.7-1.2,13.4-2.7,18.3,10.3c5.4,14.3,8.9,39.5,11.9,70.6c1.3,14.3-6.3,19.1-14.9,19.6
			l-4.2,0.3"/>
		<path class="st23" d="M408.3,182c5.5-1.3,18.3-3.2,29.9-2.9c11.7,0.4,24.8,2.8,33.3,11.5c4.1,4.1,5.5,9.6,5,15.3
			c-0.9,10-2.6,33.2-42.4,35.2"/>
		<path class="st23" d="M449.8,129.2l1.8,7.1"/>
		<path class="st23" d="M500.5,201.2c-4.8,0-8.6-3.9-8.6-8.6c0-4.8,3.9-8.6,8.6-8.6c4.8,0,8.6,3.9,8.6,8.6
			C509.2,197.3,505.3,201.2,500.5,201.2z"/>
		<path class="st23" d="M466.6,273.6h9.7c0.6,0,1-0.5,1-1v-10c0-0.6-0.5-1-1-1h-9.7c-0.6,0-1,0.5-1,1v10
			C465.6,273.1,466.1,273.6,466.6,273.6z"/>
		<circle class="st24" cx="447.8" cy="120.3" r="8.8"/>
		<path class="st23" d="M500.5,274.4c0,0-8.6-17,7.4-43.9"/>
		<g>
			<path class="st0" d="M469.2,256.1c-12.8,0-23.1,10.3-23.1,23.1v126.1c0,7.7-6,14.2-13.6,14.3c-7.8,0.1-14.1-6.1-14.1-13.9h-55.6
				V279.2c0-8.1,4.1-15.9,11.1-20c3.4-2,7.4-3.1,11.7-3.1H469.2z"/>
			<path class="st3" d="M492.3,280v55.7h-46.2v-56.4c0-1.4,0.1-2.9,0.4-4.2c2-10.7,11.3-18.8,22.5-18.9
				C481.8,256,492.3,267.1,492.3,280z"/>
			<path class="st3" d="M334.9,405.8c0,7.7,6.2,13.9,13.9,13.9h83.4c-7.7,0-13.9-6.2-13.9-13.9H334.9z"/>
		</g>
		<path class="st22" d="M511.8,226c8.1,4.8,15,10.1,20.9,15.5c23,21.2,16.2,59.1-12.8,70.8l-31.7,12.8c-11.3,4.6-24.1-1.5-27.7-13.2
			l0,0c-3.1-10.2,1.9-21.1,11.7-25.3l39.7-17.1"/>
		<g>
			<path class="st25" d="M385.5,365.6h47.8c1.6,0,2.9,1.3,2.9,2.9v0c0,1.6-1.3,2.9-2.9,2.9l-47.8,0c-1.6,0-2.9-1.3-2.9-2.9v0
				C382.6,366.9,383.9,365.6,385.5,365.6z"/>
			<path class="st25" d="M402.4,354l30.9,0c1.6,0,2.9,1.3,2.9,2.9v0c0,1.6-1.3,2.9-2.9,2.9l-30.9,0c-1.6,0-2.9-1.3-2.9-2.9v0
				C399.5,355.3,400.8,354,402.4,354z"/>
			<path class="st26" d="M414.1,380.1h20.1c1.1,0,2,0.9,2,2v13.7c0,1.1-0.9,2-2,2h-20.1c-1.1,0-2-0.9-2-2v-13.7
				C412.1,381,413,380.1,414.1,380.1z"/>
		</g>
		<g>
			<path class="st25" d="M376.9,298.9h56.4c1.6,0,2.9,1.3,2.9,2.9l0,0c0,1.6-1.3,2.9-2.9,2.9l-56.4,0c-1.6,0-2.9-1.3-2.9-2.9v0
				C374,300.2,375.3,298.9,376.9,298.9z"/>
			<path class="st25" d="M401.9,287.2h31.3c1.6,0,2.9,1.3,2.9,2.9l0,0c0,1.6-1.3,2.9-2.9,2.9l-31.3,0c-1.6,0-2.9-1.3-2.9-2.9v0
				C399.1,288.5,400.3,287.2,401.9,287.2z"/>
			<path class="st25" d="M390.9,275.6h42.4c1.6,0,2.9,1.3,2.9,2.9l0,0c0,1.6-1.3,2.9-2.9,2.9l-42.4,0c-1.6,0-2.9-1.3-2.9-2.9v0
				C388,276.9,389.3,275.6,390.9,275.6z"/>
			<path class="st26" d="M385.6,313.4h48.6c1.1,0,2,0.9,2,2V329c0,1.1-0.9,2-2,2h-48.6c-1.1,0-2-0.9-2-2v-13.7
				C383.6,314.3,384.5,313.4,385.6,313.4z"/>
		</g>
		<path class="st23" d="M464.9,249.9c31.8,0,57.5-25.7,57.5-57.5"/>
	</g>
	<path class="st27" d="M535.5,312.2c0,0-5.2,2.5-13.1-0.5"/>
	<polygon class="st0" points="531.8,113.1 538.5,116.1 531.7,118.7 528.7,125.4 526,118.6 519.4,115.6 526.2,112.9 529.2,106.2 	"/>
	<polygon class="st0" points="234.5,390.6 241.2,393.5 234.4,396.2 231.4,402.9 228.7,396.1 222,393.1 228.9,390.4 231.9,383.7 	"/>
	<path class="st1" d="M66.9,75.8l2.5,0.8l-2.5,0.8L66.1,80l-0.8-2.5l-2.5-0.8l2.5-0.8l0.8-2.5L66.9,75.8z"/>
</g>
</svg>
